# xmcd
#
# Track frame offsets: 
#        150
#        23128
#        39097
#        64213
#        93881
#        105813
#        126623
#        144671
#        162456
#        175928
#        195831
#        223286
#        256996
#
# Disc length: 3689 seconds
#
# Revision: 3
# Processed by: cddbd v1.5.2PL0 Copyright (c) Steve Scherf et al.
# Submitted via: ExactAudioCopyFreeDBPlugin 1.0
#
DISCID=b10e670d
DTITLE=Various Artist - Peach State Blues
DYEAR=1999
DGENRE=Blues
TTITLE0=King Johnson - Where My Baby Might Be
TTITLE1=Diane Durrett - Blue Eyed Soul
TTITLE2=Barry Richman Band - Without Explanation
TTITLE3=Chris Hicks - Blues Got Me Down
TTITLE4=Wayne "Bear" Sauls - Special Kind Of Mambo
TTITLE5=Tim Brooks - Sweet Dreams
TTITLE6=Diane Durrett - Side Squeeze
TTITLE7=Doug "Little Brother" Jones - When The Deal Goes Down
TTITLE8=Doug "Little Brother" Jones - The Last Time
TTITLE9=Reddog - Honest Man
TTITLE10=Barry Richman Band - Reflection Avenue
TTITLE11=Donnie McCormick - It's A Feeling
TTITLE12=Tim Brooks - Jesse
EXTD=YEAR: 1999 ID3G: 0
EXTT0=
EXTT1=
EXTT2=
EXTT3=
EXTT4=
EXTT5=
EXTT6=
EXTT7=
EXTT8=
EXTT9=
EXTT10=
EXTT11=
EXTT12=
PLAYORDER=
